<svg xmlns="http://www.w3.org/2000/svg" fill="none" width="138" height="50" viewBox="0 0 138 512" version="1.1">
	<path d="M 234.500 37.586 C 232.850 37.821, 227.900 38.498, 223.500 39.090 C 211.379 40.721, 190.738 46.303, 175.916 51.957 C 140.278 65.553, 108.846 87.146, 85.747 113.901 C 74.579 126.837, 67.410 137.741, 60.459 152.364 C 49.834 174.716, 47.041 188.885, 50.486 202.945 C 51.457 206.907, 52.560 209.777, 52.938 209.324 C 53.315 208.871, 56.015 202.200, 58.938 194.500 C 69.713 166.111, 81.808 143.646, 95.025 127.470 C 103.459 117.148, 121.298 100.439, 131.826 93 C 155.442 76.313, 186.853 62.859, 217.205 56.428 C 232.376 53.214, 262.881 51.992, 278.722 53.963 C 304.138 57.126, 335.968 68.409, 356.470 81.524 C 364.262 86.508, 367.240 86.923, 370.443 83.467 C 375.065 78.480, 373.884 76.445, 361.500 68.049 C 340.886 54.072, 316.217 44.413, 288.500 39.464 C 279.859 37.921, 241.510 36.587, 234.500 37.586 M 247.399 132.394 C 230.824 135.097, 215.202 141.378, 202.610 150.404 C 191.156 158.614, 188.177 163.793, 189.991 172.342 C 191.365 178.816, 197.992 191.500, 200 191.500 C 201.021 191.500, 201.769 189.903, 202.343 186.500 C 202.807 183.750, 203.723 179.932, 204.379 178.015 C 206.761 171.055, 224.965 159.406, 239.500 155.541 C 247.876 153.313, 261.325 152.550, 268.500 153.896 C 276.529 155.401, 287.815 160.882, 292.470 165.537 C 306.083 179.149, 302.322 200.083, 283.546 215.209 C 275.028 222.071, 264.198 227.034, 241.500 234.477 C 209.491 244.972, 194.194 253.689, 181.670 268.570 C 174.766 276.773, 167.815 290.376, 164.842 301.500 C 161.852 312.688, 161.875 331.216, 164.893 342.500 C 174.467 378.305, 205.165 406.203, 241.427 412.053 C 250.850 413.573, 270.248 412.780, 278.500 410.538 C 299.063 404.951, 316.808 392.628, 330.182 374.648 C 344.261 355.722, 349.701 335.815, 347.043 312.953 C 343.846 285.454, 332.197 265.369, 311.175 251.113 C 302.535 245.254, 295.055 242.082, 285.050 240.036 C 276.803 238.349, 276.659 238.271, 279.050 236.760 C 280.398 235.908, 285.550 232.716, 290.500 229.665 C 302.173 222.472, 308.648 216.671, 314.363 208.289 C 320.967 198.602, 323.319 191.427, 323.310 181 C 323.298 166.792, 316.988 154.699, 304.762 145.451 C 289.796 134.130, 267.657 129.091, 247.399 132.394 M 46.144 140.326 C 42.700 144.476, 30.783 176.735, 26.446 193.648 C 15.024 238.190, 14.093 276.714, 23.440 318 C 24.747 323.775, 26.363 329.850, 27.031 331.500 L 28.246 334.500 29.600 331.314 C 30.344 329.562, 31.909 323.378, 33.078 317.571 C 35.158 307.236, 35.169 306.680, 33.595 291.257 C 29.853 254.607, 32.523 226.789, 44.174 181 C 51.144 153.607, 52.916 139, 49.269 139 C 48.156 139, 46.750 139.597, 46.144 140.326 M 477.607 187.582 C 476.672 190.017, 476.902 204.796, 477.979 211.500 C 480.756 228.795, 482.159 246.613, 483.018 275.500 C 483.575 294.234, 484.631 312.060, 485.565 318.500 C 487.099 329.073, 488.406 332.973, 489.391 329.917 C 493.082 318.466, 495.812 302.109, 497.066 283.927 C 499.166 253.475, 495.320 224.592, 484.859 192.250 C 483.150 186.969, 482.479 186, 480.525 186 C 479.254 186, 477.941 186.712, 477.607 187.582 M 246 255.478 C 235.946 257.725, 226.802 261.657, 219.178 267.011 C 203.556 277.982, 195.987 293.708, 196.012 315.144 C 196.032 333.076, 200.780 345.010, 212.518 356.632 C 224.742 368.736, 240.315 375.044, 258 375.055 C 274.942 375.065, 289.159 369.531, 301.079 358.286 C 313.503 346.566, 318.917 331.637, 317.684 312.502 C 315.436 277.625, 294.574 255.874, 262 254.443 C 255.866 254.173, 250.197 254.540, 246 255.478 M 464.172 265.750 C 463.679 266.712, 462.999 271.571, 462.663 276.546 C 461.821 288.995, 457.710 310.542, 453.582 324.149 C 432.746 392.826, 388.724 437.171, 310.785 467.995 C 302.142 471.414, 294.582 474.799, 293.985 475.518 C 292.647 477.130, 295.132 483.730, 297.406 484.602 C 300.350 485.732, 328.769 476.228, 346.405 468.216 C 385.851 450.297, 419.342 422.135, 441.205 388.500 C 461.396 357.437, 474.262 318.491, 474.405 288 C 474.465 275.199, 473.252 268.395, 470.402 265.545 C 468.342 263.485, 465.283 263.586, 464.172 265.750 M 181.637 285.925 C 175.034 298.057, 173.029 318.974, 176.986 334.445 C 180.417 347.859, 186.001 356.987, 198.500 369.608 C 213.657 384.914, 225.199 391.539, 242 394.575 C 259.875 397.805, 277.255 395.546, 292.500 388.012 C 310.237 379.247, 324.392 366.115, 331.658 351.686 C 337.182 340.717, 340.477 325.012, 338.393 319.582 C 337.252 316.609, 336 317.995, 335.983 322.250 C 335.919 337.846, 326.452 357.859, 313.375 370.042 C 303.851 378.914, 290.544 386.404, 277.821 390.054 C 267.215 393.096, 250.529 393.756, 240.397 391.535 C 218.355 386.701, 196.677 370.170, 186.848 350.699 C 176.920 331.031, 175.770 312.893, 182.992 289.859 C 184.519 284.986, 185.443 281, 185.043 281 C 184.644 281, 183.112 283.216, 181.637 285.925 M 58.093 368.388 C 56.549 370.248, 59.091 376.615, 66.545 389.559 C 93.002 435.502, 140.963 471.069, 194.717 484.608 C 213.907 489.442, 219.706 489.008, 218.827 482.805 C 218.404 479.826, 215.189 478.318, 196.572 472.374 C 156.352 459.530, 118.086 433.669, 90.728 400.842 C 87.676 397.180, 81.339 388.351, 76.645 381.220 C 71.951 374.090, 67.374 367.974, 66.474 367.628 C 63.653 366.546, 59.294 366.941, 58.093 368.388" stroke="none" fill="black" fill-rule="evenodd"/>
</svg>